<?xml version="1.0" standalone="no"?>
<!DOCTYPE svg PUBLIC "-//W3C//DTD SVG 20010904//EN"
 "http://www.w3.org/TR/2001/REC-SVG-20010904/DTD/svg10.dtd">
<svg version="1.0" xmlns="http://www.w3.org/2000/svg"
 width="1420.000000pt" height="260.000000pt" viewBox="0 0 1420.000000 260.000000"
 preserveAspectRatio="xMidYMid meet">

<g transform="translate(0.000000,260.000000) scale(0.100000,-0.100000)"
fill="#000000" stroke="none">
<path d="M1563 2500 c8 -19 46 -105 84 -190 38 -85 76 -170 84 -187 7 -18 17
-33 21 -33 4 0 4 -7 1 -17 -5 -12 -3 -14 7 -8 9 6 12 4 8 -6 -3 -8 3 -22 13
-33 13 -13 9 4 -15 65 -58 144 -114 268 -156 347 -45 84 -70 117 -47 62z"/>
<path d="M1218 2116 c-15 -18 -44 -62 -64 -97 -19 -35 -39 -68 -43 -74 -4 -5
-13 -23 -20 -39 -11 -26 -10 -28 3 -17 32 27 173 265 154 260 -2 0 -15 -15
-30 -33z"/>
<path d="M1746 1974 c8 -33 111 -254 118 -254 3 0 0 14 -5 30 -5 17 -13 43
-18 58 -15 49 -70 163 -87 179 -13 14 -14 13 -8 -13z"/>
<path d="M1803 1960 c1 -11 4 -20 8 -20 4 0 11 -9 14 -20 3 -11 11 -20 16 -20
5 0 4 10 -3 23 -12 22 -14 28 -17 47 -2 19 -20 10 -18 -10z"/>
<path d="M1531 1825 c-23 -35 -41 -68 -41 -71 0 -4 -6 -15 -14 -23 -7 -9 -28
-45 -47 -81 -32 -62 -184 -297 -239 -370 -15 -19 -39 -52 -54 -73 -16 -21 -30
-36 -33 -33 -5 4 74 157 107 206 9 14 32 52 50 85 l34 60 -44 -37 c-36 -29
-52 -35 -79 -33 -51 4 -74 -16 -161 -139 -85 -121 -132 -172 -149 -162 -6 4
-9 1 -5 -7 3 -8 -2 -20 -11 -27 -8 -7 -15 -9 -15 -5 0 5 -9 0 -20 -10 -11 -10
-17 -22 -13 -28 3 -5 1 -7 -4 -4 -6 4 -23 -11 -38 -33 -24 -34 -30 -38 -43
-28 -13 11 -14 10 -5 -6 11 -20 11 -20 -48 -90 -66 -77 -139 -181 -139 -196 0
-14 9 -17 45 -15 35 1 56 9 93 37 26 20 76 54 112 76 36 22 80 50 98 61 56 35
67 23 32 -33 -23 -39 -337 -281 -455 -352 -101 -61 -195 -125 -249 -171 -67
-56 -74 -41 -19 42 38 59 39 87 1 40 -13 -15 -43 -64 -68 -109 -25 -45 -52
-81 -60 -81 -41 0 -54 -87 -14 -93 46 -7 214 101 589 378 61 44 144 105 186
135 42 30 82 62 89 70 18 21 43 19 99 -9 26 -14 164 -68 307 -121 142 -53 311
-116 374 -140 469 -178 830 -300 866 -291 33 9 41 48 19 99 -9 23 -43 110 -75
192 -75 195 -168 400 -177 391 -4 -4 28 -88 37 -96 3 -3 17 -39 32 -80 27 -76
103 -261 138 -336 26 -57 34 -91 21 -98 -6 -4 -106 29 -223 73 -117 43 -276
102 -353 131 -213 79 -619 231 -820 307 -124 47 -181 73 -183 85 -2 9 44 85
102 170 143 209 165 238 180 238 8 0 16 6 19 14 3 8 40 67 82 131 75 114 78
117 96 99 17 -18 143 -298 168 -376 7 -21 23 -46 35 -56 13 -10 31 -32 40 -50
9 -18 30 -45 46 -61 17 -15 30 -36 30 -45 0 -22 -37 -20 -49 3 -6 10 -30 34
-53 52 -24 18 -37 26 -30 19 6 -8 12 -18 12 -23 0 -4 -6 -5 -12 -1 -9 6 -9 3
0 -9 12 -14 11 -16 -8 -12 -13 2 -25 7 -28 10 -3 2 -11 0 -19 -6 -8 -7 -13 -8
-13 -1 0 5 -14 8 -31 7 -24 -2 -29 1 -25 14 4 11 2 11 -9 -3 -14 -19 -21 -11
-16 17 1 5 -3 6 -9 2 -6 -3 -7 -12 -3 -18 4 -7 -1 -6 -11 2 -10 8 -15 23 -13
33 3 10 1 21 -4 24 -5 3 -9 2 -8 -3 1 -4 1 -17 0 -28 -1 -16 -3 -17 -10 -6 -5
8 -7 21 -4 29 3 8 0 18 -8 23 -11 7 -9 8 6 6 11 -1 25 -6 32 -10 6 -4 15 -3
18 3 4 6 3 10 -2 9 -4 -1 -11 0 -15 1 -13 4 -27 7 -38 9 -5 0 -10 5 -10 10 0
5 22 2 50 -7 27 -8 47 -18 45 -21 -1 -3 17 -7 41 -8 24 -1 53 -7 65 -13 16 -9
20 -9 17 0 -5 17 -42 35 -143 71 -49 17 -118 49 -152 70 -34 22 -69 39 -77 39
-17 0 -116 -118 -175 -210 -60 -92 -56 -115 28 -157 51 -25 199 -77 338 -118
7 -2 15 0 18 5 4 6 1 10 -4 10 -6 0 -11 3 -11 8 0 4 156 7 348 8 l347 0 52 27
c29 15 58 24 65 22 8 -3 24 -23 38 -45 13 -21 27 -37 31 -34 9 5 -9 51 -59
149 -100 198 -209 422 -254 519 -27 60 -56 115 -64 123 -14 14 -39 9 -30 -6 3
-4 -29 -7 -70 -6 -72 2 -76 1 -85 -23 -5 -14 -7 -27 -4 -30 2 -3 -1 -12 -8
-20 -6 -9 -7 -13 -1 -9 7 4 11 -17 12 -61 1 -37 4 -77 6 -90 4 -15 1 -20 -7
-16 -9 5 -9 4 0 -6 10 -11 9 -16 -4 -25 -13 -10 -13 -14 -3 -20 9 -6 11 -4 5
5 -5 9 -4 11 3 6 7 -4 8 -15 3 -29 -4 -12 -6 -29 -4 -37 2 -8 -4 -1 -13 15 -9
17 -20 32 -23 35 -4 3 -20 31 -36 62 -49 95 -52 66 -5 -47 5 -11 26 -58 48
-105 49 -106 53 -118 42 -125 -14 -9 -54 53 -110 170 -52 108 -151 339 -191
443 l-21 52 21 43 c12 24 21 52 21 64 0 22 24 47 56 57 23 7 79 100 69 116
-16 26 -45 7 -84 -55z"/>
<path d="M1850 1875 c0 -12 4 -25 10 -31 5 -5 11 -22 12 -37 1 -15 5 -27 8
-27 8 0 43 -70 63 -125 35 -95 150 -363 221 -518 43 -92 79 -174 80 -180 1 -7
12 -30 24 -50 12 -21 22 -45 22 -53 0 -8 5 -14 10 -14 13 0 14 -3 -14 66 -58
142 -103 246 -195 447 -17 37 -31 69 -31 72 0 2 -15 36 -34 77 -18 40 -55 122
-80 181 -76 175 -96 214 -96 192z"/>
<path d="M2927 1668 c-21 -20 -447 -718 -447 -733 0 -3 33 -5 73 -5 l72 0 169
286 c93 157 172 282 177 277 4 -4 41 -64 82 -133 l75 -125 -112 -3 -112 -3
-31 -52 -31 -52 176 -3 177 -2 56 -93 55 -92 78 -3 c63 -2 77 0 73 11 -11 28
-421 703 -440 725 -11 12 -31 22 -43 22 -13 0 -34 -10 -47 -22z"/>
<path d="M3550 1305 l0 -375 320 0 320 0 0 65 0 65 -255 0 -255 0 0 310 0 310
-65 0 -65 0 0 -375z"/>
<path d="M4280 1305 l0 -375 320 0 320 0 0 65 0 65 -255 0 -255 0 0 310 0 310
-65 0 -65 0 0 -375z"/>
<path d="M10539 1667 c-103 -29 -181 -96 -228 -197 -23 -48 -26 -68 -25 -155
0 -79 5 -112 23 -157 31 -79 98 -150 179 -190 66 -33 68 -33 232 -36 148 -3
173 -1 229 18 l64 21 22 -21 c20 -18 32 -20 111 -18 l89 3 -68 49 c-37 28 -67
51 -67 52 0 2 14 23 30 48 51 74 63 121 64 231 1 88 -2 107 -25 156 -37 79
-90 133 -167 171 l-67 33 -175 2 c-118 2 -190 -2 -221 -10z m367 -132 c59 -17
104 -56 135 -116 43 -83 25 -229 -35 -278 -18 -15 -14 -17 -103 57 l-51 43
-85 -3 -85 -3 104 -80 c67 -52 99 -82 91 -87 -7 -4 -66 -8 -133 -8 -149 0
-205 15 -256 67 -56 59 -72 98 -72 178 0 114 58 200 158 231 58 18 270 18 332
-1z"/>
<path d="M11293 1428 c5 -291 13 -333 78 -403 71 -77 197 -112 373 -102 116 6
181 24 247 66 37 23 54 44 80 97 l34 69 3 262 4 263 -65 0 -66 0 -3 -252 c-3
-243 -4 -254 -26 -290 -14 -22 -41 -46 -70 -60 -42 -20 -61 -23 -177 -23 -116
0 -135 3 -177 23 -29 14 -56 38 -70 60 -22 36 -23 47 -26 290 l-3 252 -71 0
-70 0 5 -252z"/>
<path d="M12230 1305 l0 -375 65 0 65 0 0 375 0 375 -65 0 -65 0 0 -375z"/>
<path d="M12739 1666 c-102 -27 -181 -95 -228 -196 -23 -48 -26 -68 -25 -155
0 -79 5 -112 23 -157 31 -79 98 -150 179 -190 l66 -33 248 -3 248 -3 0 65 0
66 -213 0 c-249 0 -292 8 -349 67 -56 59 -72 98 -72 178 0 80 19 130 71 181
54 55 106 64 350 64 l213 0 0 65 0 65 -232 -1 c-151 0 -249 -5 -279 -13z"/>
<path d="M13370 1305 l0 -375 65 0 65 0 0 375 0 375 -65 0 -65 0 0 -375z"/>
<path d="M13760 1520 c-208 -161 -233 -188 -214 -230 5 -12 106 -98 224 -190
l215 -169 98 -1 c53 0 97 2 97 3 0 2 -112 89 -249 192 l-250 189 247 183 246
183 -104 -1 -105 0 -205 -159z"/>
<path d="M1551 1490 c0 -8 20 -55 44 -105 46 -92 48 -92 20 8 -16 56 -64 129
-64 97z"/>
<path d="M863 1458 c-41 -44 -175 -224 -244 -328 -65 -98 -109 -200 -109 -251
0 -16 5 -14 29 13 34 39 116 99 125 93 3 -3 4 -2 1 1 -2 4 6 15 18 24 16 13
26 15 35 8 9 -8 11 -7 7 4 -3 8 2 21 12 29 17 13 17 13 3 -6 -14 -19 -14 -19
3 -6 9 7 17 18 17 23 0 15 61 69 70 63 5 -3 11 -1 15 4 3 6 -3 8 -15 6 -27 -5
-25 1 8 32 15 15 21 23 13 18 -9 -5 -9 -1 3 17 9 13 22 44 29 69 16 52 23 209
9 209 -5 0 -18 -10 -29 -22z"/>
</g>
</svg>
