<?xml version="1.0" standalone="no"?>
<!DOCTYPE svg PUBLIC "-//W3C//DTD SVG 20010904//EN"
 "http://www.w3.org/TR/2001/REC-SVG-20010904/DTD/svg10.dtd">
<svg version="1.0" xmlns="http://www.w3.org/2000/svg"
 width="64.000000pt" height="64.000000pt" viewBox="0 0 64.000000 64.000000"
 preserveAspectRatio="xMidYMid meet">

<g transform="translate(0.000000,64.000000) scale(0.100000,-0.100000)"
fill="#000000" stroke="none">
<path d="M178 507 l-128 -72 0 -142 c0 -80 4 -143 9 -143 5 0 26 29 46 65 38
69 46 78 38 43 -5 -19 -3 -21 8 -11 24 23 31 13 10 -14 -29 -36 -18 -41 32
-13 34 19 39 20 27 5 -26 -31 -152 -115 -164 -108 -6 3 -8 3 -4 -2 4 -4 -3
-16 -15 -25 -36 -30 -10 -35 33 -6 22 14 43 26 47 26 4 0 51 -25 105 -56 l98
-55 91 52 92 52 48 -17 c27 -10 54 -16 60 -14 6 2 -60 31 -147 63 l-159 60
115 5 c63 3 120 8 127 12 7 5 15 -3 22 -22 5 -17 12 -30 15 -30 4 0 6 62 6
138 l0 137 -83 46 -83 45 4 -28 c2 -15 9 -28 14 -28 5 0 7 -4 4 -9 -4 -5 -3
-11 2 -13 10 -4 94 -189 89 -195 -3 -2 -17 22 -33 54 -21 41 -35 59 -51 61
-20 3 -23 -1 -23 -27 0 -16 -5 -33 -10 -36 -6 -4 -7 -11 -4 -17 12 -20 13 -57
1 -53 -7 2 -25 6 -40 10 -19 4 -27 11 -24 19 7 16 -40 40 -57 29 -7 -4 -3 0 7
10 11 9 25 17 33 17 8 0 14 8 14 18 1 11 6 7 17 -13 19 -35 53 -81 53 -71 0 4
-7 21 -17 39 -9 18 -24 53 -33 79 l-17 48 -32 -50 c-32 -49 -52 -68 -31 -31
23 44 -3 43 -42 -1 l-29 -33 6 33 c8 39 2 40 -31 5 l-26 -28 20 35 c62 108 90
149 97 142 5 -4 5 -2 2 4 -3 6 3 25 14 42 35 58 32 58 -123 -31z m114 -297 c6
0 9 -2 6 -5 -9 -10 -59 15 -53 25 4 6 12 4 21 -5 9 -8 20 -15 26 -15z"/>
<path d="M370 448 c-12 -22 -12 -22 6 -6 10 10 15 20 12 24 -4 3 -12 -5 -18
-18z"/>
</g>
</svg>
