<?xml version="1.0" standalone="no"?>
<!DOCTYPE svg PUBLIC "-//W3C//DTD SVG 20010904//EN"
 "http://www.w3.org/TR/2001/REC-SVG-20010904/DTD/svg10.dtd">
<svg version="1.0" xmlns="http://www.w3.org/2000/svg"
 width="512.000000pt" height="512.000000pt" viewBox="0 0 512.000000 512.000000"
 preserveAspectRatio="xMidYMid meet">

<g transform="translate(0.000000,512.000000) scale(0.100000,-0.100000)"
fill="#000000" stroke="none">
<path d="M3080 4843 c0 -15 19 -37 26 -31 3 4 -1 14 -10 23 -9 9 -16 13 -16 8z"/>
<path d="M3130 4730 c0 -5 4 -10 9 -10 5 0 13 -17 18 -37 4 -20 15 -38 23 -40
9 -3 11 -1 5 4 -6 4 -17 27 -23 51 -11 37 -32 58 -32 32z"/>
<path d="M2525 4683 c-11 -3 -23 -11 -28 -18 -4 -8 -21 -16 -37 -20 -17 -4
-30 -10 -30 -15 0 -4 -13 -13 -30 -20 -16 -7 -30 -16 -30 -20 0 -4 -18 -13
-39 -20 -22 -7 -42 -19 -45 -25 -2 -7 -18 -16 -35 -20 -17 -4 -31 -10 -31 -15
0 -4 -13 -13 -30 -20 -16 -7 -30 -16 -30 -20 0 -5 -14 -11 -31 -15 -17 -4 -33
-13 -35 -20 -3 -6 -23 -18 -46 -26 -22 -7 -42 -18 -45 -25 -2 -6 -22 -17 -44
-24 -21 -7 -39 -16 -39 -20 0 -3 -16 -12 -35 -20 -19 -8 -35 -17 -35 -21 0 -4
-13 -12 -30 -18 -16 -5 -30 -14 -30 -19 0 -5 -18 -14 -40 -21 -22 -6 -40 -16
-40 -21 0 -5 -16 -14 -35 -21 -19 -7 -35 -16 -35 -20 0 -4 -13 -12 -30 -19
-16 -7 -30 -16 -30 -20 0 -5 -13 -11 -30 -15 -16 -4 -33 -12 -37 -19 -5 -7
-24 -18 -43 -26 -19 -8 -39 -19 -45 -26 -5 -6 -26 -17 -47 -23 -20 -7 -39 -18
-41 -26 -3 -7 -19 -16 -36 -20 -17 -4 -31 -10 -31 -15 0 -4 -13 -13 -30 -20
-16 -7 -30 -16 -30 -20 0 -5 -13 -11 -30 -15 -16 -4 -33 -12 -37 -19 -5 -7
-24 -18 -43 -26 -19 -8 -38 -19 -42 -26 -4 -6 -19 -15 -34 -18 -14 -4 -35 -16
-47 -26 -11 -11 -27 -20 -34 -20 -7 0 -13 -4 -13 -8 0 -4 -16 -14 -35 -21 -19
-7 -35 -16 -35 -21 0 -5 -17 -14 -37 -20 -21 -7 -42 -18 -48 -25 -5 -6 -27
-18 -48 -25 -20 -8 -37 -18 -37 -23 0 -4 -13 -13 -30 -18 -16 -6 -30 -14 -30
-18 0 -4 -16 -13 -35 -21 -19 -8 -35 -16 -35 -20 0 -3 -16 -12 -35 -19 -19 -7
-35 -16 -35 -21 0 -4 -13 -13 -30 -19 -16 -5 -30 -17 -30 -25 0 -9 -4 -16 -10
-16 -7 0 -10 -376 -10 -1108 l0 -1108 29 -29 c59 -61 76 -68 86 -35 3 11 10
20 14 20 5 0 14 15 22 33 7 17 19 36 26 40 7 4 13 14 13 22 0 8 6 18 13 22 7
4 21 27 31 50 11 24 22 43 27 43 4 0 10 14 14 31 4 17 12 32 19 35 7 3 19 20
26 39 8 19 17 35 21 35 4 0 12 14 18 30 5 17 14 30 19 30 4 0 14 16 22 35 8
19 17 35 21 35 3 0 12 14 19 30 7 17 16 30 19 30 4 0 13 16 21 35 8 19 17 35
20 35 3 0 12 16 20 35 8 19 17 35 20 35 3 0 14 16 23 35 9 19 21 35 25 35 5 0
14 18 21 40 6 22 16 40 20 40 5 0 14 14 21 30 7 17 16 30 20 30 5 0 13 14 19
30 5 17 14 30 20 30 5 0 12 14 16 31 4 17 13 33 21 36 8 3 14 11 14 19 0 8 9
23 20 34 11 11 22 31 26 45 3 14 11 29 18 33 6 4 18 21 26 37 8 17 21 34 27
38 7 4 13 14 13 22 0 7 6 20 13 27 15 15 47 81 47 97 0 6 5 11 10 11 6 0 15
11 20 25 5 14 14 25 19 25 6 0 16 18 22 40 7 22 16 40 21 40 5 0 13 11 18 25
5 14 13 25 18 25 4 0 14 16 21 35 7 19 16 35 20 35 5 0 14 14 21 30 7 17 16
30 20 30 5 0 11 14 15 31 4 17 13 33 21 36 8 3 14 11 14 19 0 8 8 22 18 32 19
19 52 83 52 101 0 6 5 11 11 11 5 0 15 14 20 30 6 17 15 30 19 30 5 0 14 16
21 35 7 19 17 35 21 35 5 0 13 11 18 25 5 14 13 25 18 25 4 0 14 16 21 35 7
19 16 35 21 35 4 0 13 14 19 30 5 17 14 30 20 30 5 0 12 13 16 30 4 16 12 33
19 37 7 5 18 23 25 41 8 17 17 32 21 32 5 0 13 14 19 30 5 17 14 30 18 30 5 0
17 20 27 45 11 25 22 45 26 45 4 0 13 15 21 33 7 17 18 35 25 40 7 4 15 21 19
37 4 17 11 30 16 30 6 0 15 14 20 30 6 17 15 30 19 30 5 0 14 16 21 35 7 19
17 35 21 35 5 0 13 11 18 25 5 14 13 25 18 25 4 0 14 16 21 35 7 19 16 35 21
35 4 0 13 14 19 30 5 17 15 30 20 30 6 0 11 5 11 11 0 19 33 84 47 92 7 4 13
14 13 22 0 7 6 20 13 27 7 7 20 28 28 46 7 17 18 32 22 32 4 0 13 14 18 30 6
17 14 30 19 30 4 0 13 14 20 30 7 17 16 30 20 30 5 0 14 17 21 38 7 20 18 42
25 47 16 13 25 47 16 62 -8 13 -69 23 -97 16z"/>
<path d="M3191 4615 c1 -19 18 -51 18 -35 0 8 -4 22 -9 30 -5 8 -9 11 -9 5z"/>
<path d="M3210 4550 c0 -5 5 -10 10 -10 6 0 10 5 10 10 0 6 -4 10 -10 10 -5 0
-10 -4 -10 -10z"/>
<path d="M3231 4526 c-1 -5 4 -25 11 -43 12 -34 28 -44 28 -18 0 8 -4 15 -9
15 -5 0 -14 12 -19 28 -6 15 -11 23 -11 18z"/>
<path d="M3283 4397 c4 -10 7 -23 7 -28 0 -5 5 -9 10 -9 15 0 12 20 -7 38 -16
16 -16 16 -10 -1z"/>
<path d="M3310 4336 c0 -8 4 -17 9 -20 5 -4 7 3 4 14 -6 23 -13 26 -13 6z"/>
<path d="M2448 4275 c-7 -5 -20 -23 -28 -40 -8 -16 -20 -33 -27 -38 -6 -4 -14
-21 -18 -38 -4 -17 -13 -33 -20 -35 -7 -3 -16 -16 -19 -28 -3 -12 -17 -35 -31
-52 -14 -16 -25 -35 -25 -41 0 -7 -4 -13 -8 -13 -5 0 -14 -16 -22 -35 -8 -19
-17 -35 -21 -35 -3 0 -12 -13 -19 -30 -7 -16 -16 -30 -20 -30 -5 0 -11 -13
-15 -30 -4 -16 -12 -33 -19 -37 -7 -5 -18 -24 -26 -43 -8 -19 -19 -38 -24 -43
-12 -8 38 -2 53 7 5 4 12 20 16 36 4 17 11 30 16 30 5 0 14 11 19 25 5 14 13
25 18 25 4 0 14 16 22 35 8 19 17 35 21 35 3 0 12 14 19 30 7 17 16 30 21 30
4 0 13 16 20 35 7 19 17 35 21 35 5 0 15 18 24 40 9 22 20 40 24 40 4 0 13 14
19 30 5 17 14 30 20 30 5 0 12 13 16 29 3 16 15 39 26 52 10 12 19 25 19 28 0
11 -37 8 -52 -4z"/>
<path d="M3330 4280 c0 -5 4 -10 8 -10 5 0 14 -22 21 -50 7 -27 16 -50 20 -50
4 0 13 -20 20 -45 7 -25 16 -45 20 -45 3 0 15 -27 25 -60 11 -33 22 -60 25
-60 4 0 13 -20 20 -45 7 -25 17 -45 21 -45 4 0 11 -16 14 -35 4 -19 13 -41 21
-48 7 -8 18 -33 25 -55 6 -23 15 -42 19 -42 5 0 14 -21 22 -47 7 -27 19 -54
26 -61 7 -7 15 -28 19 -47 3 -19 10 -35 14 -35 4 0 13 -18 20 -40 7 -22 16
-40 20 -40 4 0 11 -16 14 -35 4 -19 12 -40 19 -47 7 -7 21 -39 31 -70 11 -32
23 -58 28 -58 4 0 8 -9 8 -19 0 -11 5 -23 10 -26 6 -3 10 -15 10 -26 0 -10 4
-19 9 -19 5 0 14 -22 21 -50 7 -27 16 -50 21 -50 5 0 14 -20 20 -45 6 -25 15
-45 20 -45 5 0 9 -9 9 -19 0 -11 5 -23 10 -26 6 -3 10 -15 10 -26 0 -10 4 -19
10 -19 5 0 12 -16 16 -36 4 -19 12 -38 19 -40 7 -3 18 -30 25 -60 7 -29 17
-54 21 -54 4 0 13 -16 19 -35 6 -19 15 -35 20 -35 4 0 13 -22 20 -50 7 -27 16
-50 20 -50 5 0 17 -27 26 -60 9 -33 20 -60 23 -60 4 0 13 -20 20 -45 7 -25 17
-45 22 -45 5 0 9 -9 9 -19 0 -11 5 -23 10 -26 6 -3 10 -15 10 -26 0 -10 4 -19
9 -19 5 0 15 -20 22 -45 7 -25 16 -45 20 -45 3 0 11 -18 18 -40 6 -22 15 -40
19 -40 4 0 13 -20 20 -45 7 -25 16 -45 21 -45 5 0 14 -22 21 -50 7 -27 16 -50
21 -50 5 0 14 -20 20 -45 6 -25 15 -45 19 -45 4 0 15 -26 25 -57 10 -32 21
-60 24 -63 4 -3 13 -24 21 -47 7 -24 16 -43 20 -43 3 0 11 -20 18 -45 7 -25
16 -45 21 -45 5 0 14 -23 21 -50 7 -27 16 -50 21 -50 4 0 14 -19 21 -42 6 -24
15 -45 18 -48 4 -3 12 -14 18 -25 10 -17 11 -18 12 -2 0 9 5 17 10 17 7 0 10
378 10 1115 0 737 -3 1115 -10 1115 -5 0 -10 7 -10 16 0 8 -13 20 -30 25 -16
6 -30 15 -30 19 0 5 -16 14 -35 21 -19 7 -35 16 -35 19 0 4 -16 12 -35 20 -19
8 -35 17 -35 21 0 4 -13 12 -30 18 -16 5 -30 14 -30 18 0 5 -17 15 -37 23 -21
7 -42 19 -48 25 -5 7 -27 18 -47 25 -21 6 -38 15 -38 20 0 5 -16 14 -35 21
-19 7 -35 17 -35 21 0 4 -6 8 -13 8 -7 0 -23 9 -34 20 -12 10 -33 22 -47 26
-15 3 -30 12 -34 18 -4 7 -23 18 -42 26 -19 8 -38 19 -43 26 -4 7 -21 15 -37
19 -17 4 -30 10 -30 15 0 4 -13 13 -30 20 -16 7 -30 16 -30 20 0 5 -14 11 -30
15 -17 4 -39 15 -48 25 -9 9 -34 23 -54 29 -21 7 -38 16 -38 21 0 4 -15 13
-32 21 -18 7 -35 16 -38 19 -3 3 -20 12 -37 19 -18 8 -33 17 -33 21 0 5 -16
14 -36 20 -20 7 -44 20 -54 29 -30 27 -45 38 -67 50 -12 6 -25 20 -28 31 -7
21 -25 28 -25 10z"/>
<path d="M3337 4083 c6 -4 14 -25 18 -46 4 -21 13 -44 21 -51 7 -8 18 -34 25
-60 6 -25 15 -46 20 -46 4 0 16 -27 25 -60 9 -33 20 -60 25 -60 4 0 13 -19 19
-42 7 -22 18 -47 25 -55 8 -7 17 -29 21 -48 3 -19 10 -35 14 -35 4 0 14 -20
21 -45 7 -25 17 -45 20 -45 4 0 10 -14 14 -30 4 -17 12 -36 19 -43 7 -7 17
-26 23 -42 5 -17 16 -30 24 -30 8 0 18 -4 22 -10 5 -6 6 -1 3 10 -3 11 -8 32
-12 48 -3 15 -10 27 -14 27 -4 0 -11 16 -14 35 -4 19 -13 40 -20 47 -7 8 -19
37 -26 66 -8 29 -17 52 -20 52 -4 0 -13 18 -20 40 -7 22 -16 40 -19 40 -4 0
-13 20 -20 45 -7 25 -17 45 -21 45 -4 0 -11 16 -14 35 -4 19 -13 41 -21 48 -7
8 -21 40 -30 71 -9 31 -20 56 -24 56 -4 0 -14 18 -21 40 -7 22 -19 40 -26 40
-7 0 -21 3 -31 6 -11 4 -14 3 -6 -3z"/>
<path d="M3073 3784 c-7 -3 -13 -12 -13 -20 0 -8 -4 -14 -10 -14 -5 0 -10 -6
-10 -12 0 -7 -11 -26 -25 -42 -13 -16 -27 -37 -30 -47 -4 -11 -10 -19 -14 -19
-5 0 -14 -13 -21 -30 -7 -16 -16 -30 -20 -30 -9 0 -32 -51 -25 -58 3 -3 5 -1
5 5 0 6 8 13 19 16 14 3 17 0 14 -14 -3 -11 -9 -19 -14 -19 -5 0 -14 -11 -19
-25 -5 -14 -13 -25 -18 -25 -4 0 -14 -16 -22 -35 -8 -19 -18 -35 -22 -35 -5 0
-13 -11 -18 -25 -5 -14 -13 -25 -18 -25 -4 0 -14 -16 -22 -35 -8 -19 -17 -35
-20 -35 -4 0 -15 -18 -25 -40 -10 -22 -21 -40 -25 -40 -4 0 -13 -13 -20 -30
-7 -16 -16 -30 -20 -30 -4 0 -13 -13 -20 -30 -7 -16 -16 -30 -20 -30 -4 0 -13
-13 -20 -30 -7 -16 -16 -30 -21 -30 -5 0 -14 -11 -19 -25 -5 -14 -13 -25 -18
-25 -4 0 -14 -16 -22 -35 -8 -19 -18 -35 -22 -35 -5 0 -13 -11 -18 -25 -5 -14
-13 -25 -18 -25 -4 0 -14 -16 -22 -35 -8 -19 -18 -35 -22 -35 -5 0 -13 -11
-18 -25 -5 -14 -13 -25 -17 -25 -5 0 -17 -18 -27 -40 -11 -22 -23 -40 -28 -40
-5 0 -13 -11 -18 -25 -5 -14 -13 -25 -17 -25 -5 0 -14 -14 -22 -32 -8 -17 -21
-39 -30 -48 -9 -10 -24 -28 -33 -41 -22 -28 -57 -34 -50 -7 2 10 7 18 11 18 4
0 13 16 21 35 8 19 18 35 22 35 5 0 13 11 18 25 10 25 19 39 52 75 10 11 20
31 24 45 3 14 14 30 24 35 10 5 21 24 25 41 4 17 12 32 19 35 7 3 19 20 26 39
8 19 18 35 22 35 5 0 14 14 19 30 6 17 15 30 19 30 5 0 12 9 15 20 3 11 13 27
21 35 9 8 11 15 4 15 -6 0 -13 -7 -16 -15 -5 -12 -30 -15 -135 -15 l-129 0
-57 -60 c-97 -101 -120 -127 -137 -164 -9 -20 -20 -36 -25 -36 -4 0 -13 -16
-21 -35 -7 -19 -19 -36 -27 -39 -7 -3 -13 -11 -13 -17 0 -6 -16 -26 -35 -45
-19 -18 -35 -35 -35 -39 0 -9 -44 -51 -68 -64 -12 -6 -22 -18 -22 -26 0 -8 -7
-15 -15 -15 -8 0 -19 -9 -25 -20 -6 -11 -17 -20 -26 -20 -8 0 -17 -7 -20 -15
-7 -16 -34 -21 -34 -6 0 5 6 16 13 23 8 7 20 30 26 51 7 20 16 37 21 37 5 0
14 26 21 58 7 31 16 60 21 63 13 9 27 145 28 262 l0 107 -40 0 c-38 0 -54 13
-27 23 9 4 9 6 -1 6 -7 1 -17 -10 -22 -24 -5 -14 -13 -25 -17 -25 -5 0 -17
-18 -27 -40 -11 -22 -22 -40 -26 -40 -3 0 -12 -16 -20 -35 -8 -19 -18 -35 -22
-35 -5 0 -13 -11 -18 -25 -5 -14 -14 -25 -19 -25 -5 0 -12 -14 -16 -31 -4 -17
-13 -33 -21 -36 -8 -3 -14 -10 -14 -17 0 -6 -11 -23 -24 -39 -19 -22 -25 -24
-30 -12 -9 24 -21 18 -36 -20 -8 -19 -18 -35 -22 -35 -5 0 -13 -11 -18 -25 -5
-14 -13 -25 -18 -25 -4 0 -16 -20 -26 -45 -11 -25 -22 -45 -26 -45 -4 0 -13
-13 -20 -30 -7 -16 -16 -30 -20 -30 -5 0 -13 -13 -19 -30 -5 -16 -14 -30 -18
-30 -5 0 -15 -16 -22 -35 -7 -19 -16 -35 -21 -35 -4 0 -13 -13 -19 -30 -5 -16
-14 -30 -19 -30 -5 0 -14 -18 -21 -40 -6 -22 -16 -40 -20 -40 -5 0 -11 -9 -14
-21 -5 -17 -2 -20 15 -16 18 5 20 2 14 -24 -3 -17 -13 -37 -21 -45 -8 -9 -15
-19 -15 -24 0 -5 -6 -15 -13 -22 -16 -17 -39 -69 -33 -75 2 -2 7 5 11 16 3 12
13 21 21 21 8 0 14 4 14 10 0 5 17 17 38 26 20 10 41 24 45 31 4 7 14 13 22
13 8 0 18 6 22 13 4 6 21 19 38 27 16 8 39 23 50 33 44 39 51 44 68 50 9 4 17
11 17 16 0 5 14 12 30 16 17 4 35 15 40 26 13 23 30 25 30 4 0 -8 -4 -15 -9
-15 -5 0 -12 -8 -16 -19 -3 -10 -17 -31 -30 -47 -14 -16 -25 -34 -25 -39 0 -6
-9 -16 -20 -23 -11 -7 -20 -19 -20 -27 0 -8 -4 -15 -10 -15 -5 0 -10 -6 -10
-14 0 -8 -11 -23 -25 -34 -14 -11 -25 -24 -25 -30 0 -5 -11 -20 -25 -33 -13
-13 -25 -29 -25 -36 0 -7 -6 -16 -13 -20 -6 -4 -19 -21 -27 -38 -8 -16 -23
-36 -32 -43 -10 -7 -18 -20 -18 -28 0 -8 -4 -14 -8 -14 -5 0 -15 -18 -22 -40
-7 -22 -16 -40 -20 -40 -4 0 -10 -9 -13 -20 -5 -19 0 -20 89 -20 l95 0 39 40
c22 22 43 40 47 40 4 0 19 12 32 25 13 14 28 25 35 25 6 0 17 9 24 20 7 11 19
20 27 20 8 0 15 4 15 8 0 5 16 14 35 22 19 8 35 18 35 22 0 5 14 14 30 19 17
6 30 15 30 19 0 5 16 14 35 21 19 7 35 16 35 21 0 4 19 13 43 20 23 7 47 18
52 24 6 7 24 14 41 16 26 3 30 1 26 -14 -2 -10 -8 -18 -12 -18 -5 0 -13 -13
-19 -30 -5 -16 -14 -30 -19 -30 -4 0 -14 -16 -22 -35 -8 -19 -20 -35 -27 -35
-8 0 -16 -7 -19 -15 -3 -8 -14 -17 -24 -20 -16 -5 -46 -28 -91 -70 -9 -8 -19
-15 -24 -15 -4 0 -18 -10 -30 -22 -35 -36 -79 -68 -92 -68 -7 0 -17 -9 -23
-20 -6 -11 -17 -20 -26 -20 -8 0 -17 -7 -20 -15 -3 -8 -14 -17 -24 -20 -17 -5
-52 -33 -95 -75 -12 -11 -24 -20 -28 -20 -4 0 -15 -7 -24 -16 -42 -37 -79 -64
-88 -64 -6 0 -16 -9 -23 -20 -7 -11 -19 -20 -27 -20 -8 0 -15 -4 -15 -10 0 -5
-14 -17 -32 -26 -18 -9 -38 -23 -46 -30 -7 -8 -17 -14 -21 -14 -5 0 -21 -11
-37 -25 -59 -52 -64 -54 -64 -30 0 20 -13 19 -40 -5 -13 -11 -26 -20 -30 -20
-4 0 -20 -11 -36 -25 -16 -14 -34 -25 -39 -25 -6 0 -16 -9 -23 -20 -7 -11 -17
-20 -22 -20 -6 0 -18 -8 -29 -18 -10 -9 -29 -25 -42 -35 -13 -10 -37 -29 -54
-42 -16 -14 -33 -25 -37 -25 -4 0 -18 -10 -31 -22 -37 -35 -81 -68 -90 -68 -5
0 -17 -10 -27 -22 -10 -13 -21 -20 -25 -16 -4 4 0 14 9 23 9 9 19 27 22 41 3
13 10 24 15 24 5 0 14 11 19 25 5 14 13 25 18 25 4 0 14 16 21 35 7 19 16 35
21 35 4 0 13 14 19 30 5 17 14 30 19 30 5 0 14 18 21 40 6 22 16 40 21 40 18
0 10 18 -10 23 -13 3 -20 0 -20 -9 0 -8 -5 -14 -10 -14 -6 0 -15 -11 -20 -25
-5 -14 -13 -25 -18 -25 -4 0 -14 -16 -22 -35 -8 -19 -17 -35 -21 -35 -3 0 -12
-13 -19 -30 -7 -16 -16 -30 -21 -30 -4 0 -13 -16 -20 -35 -7 -19 -17 -35 -22
-35 -4 0 -13 -13 -18 -30 -6 -16 -14 -30 -19 -30 -4 0 -13 -13 -20 -30 -7 -16
-16 -30 -19 -30 -4 0 -15 -19 -25 -41 -19 -42 -49 -79 -64 -79 -5 0 -18 -11
-30 -25 -25 -29 -30 -75 -7 -75 8 0 15 -9 15 -20 0 -16 7 -20 34 -20 19 0 41
6 48 13 7 7 32 21 56 31 23 11 42 22 42 26 0 4 18 12 40 19 22 6 40 15 40 20
0 4 16 13 35 21 19 8 35 18 35 22 0 5 11 13 25 18 14 5 25 14 25 20 0 5 6 10
13 10 6 0 24 10 39 23 15 13 39 32 54 43 15 10 35 27 46 36 10 10 22 18 27 18
6 0 16 8 23 18 7 9 29 26 48 36 19 11 44 28 55 38 22 21 72 16 91 -8 6 -8 32
-21 58 -30 25 -9 46 -20 46 -24 0 -5 16 -14 35 -21 19 -7 35 -16 35 -19 0 -4
16 -12 35 -20 19 -8 35 -17 35 -21 0 -3 14 -12 30 -19 17 -7 30 -16 30 -20 0
-5 14 -11 31 -15 17 -4 33 -13 36 -20 2 -8 21 -19 41 -26 21 -6 41 -18 45 -25
4 -8 14 -14 22 -14 7 0 20 -6 27 -13 7 -6 27 -19 43 -27 17 -8 32 -17 35 -20
3 -3 24 -14 48 -24 23 -11 42 -22 42 -26 0 -3 16 -12 35 -19 19 -7 35 -16 35
-21 0 -5 18 -15 40 -21 22 -7 40 -16 40 -21 0 -5 14 -14 30 -19 17 -6 30 -14
30 -18 0 -4 16 -13 35 -21 19 -8 35 -16 35 -20 0 -3 16 -12 35 -19 19 -7 35
-16 35 -21 0 -5 16 -14 35 -20 19 -6 35 -15 35 -20 0 -5 16 -14 35 -21 19 -7
35 -16 35 -19 0 -4 16 -12 35 -20 19 -8 35 -17 35 -20 0 -4 20 -15 45 -26 25
-10 45 -21 45 -24 0 -3 16 -12 35 -19 19 -7 35 -16 35 -21 0 -5 16 -14 35 -20
19 -6 35 -15 35 -20 0 -4 15 -13 33 -21 17 -7 35 -18 39 -23 9 -14 107 -14
116 0 4 5 22 16 40 23 17 8 32 17 32 21 0 5 16 14 35 20 19 6 35 15 35 20 0 5
16 14 35 21 19 7 35 16 35 19 0 3 20 14 45 24 25 11 45 22 45 26 0 3 16 12 35
20 19 8 35 16 35 20 0 3 16 12 35 19 19 7 35 16 35 21 0 5 16 14 35 20 19 6
35 15 35 20 0 5 16 14 35 21 19 7 35 16 35 19 0 4 16 12 35 20 19 8 35 17 35
21 0 4 14 12 30 18 17 5 30 14 30 19 0 5 18 14 40 21 22 6 40 16 40 21 0 5 16
14 35 21 19 7 35 16 35 19 0 4 19 15 43 26 23 10 44 21 47 25 3 3 20 12 38 20
17 8 32 17 32 20 0 4 14 12 30 18 17 5 30 14 30 20 0 5 14 12 31 16 17 4 33
13 36 20 2 8 21 19 41 26 21 6 41 18 45 25 4 8 14 14 22 14 7 0 20 6 27 12 7
7 27 20 43 28 17 8 33 19 37 25 10 14 107 13 116 -2 4 -6 24 -14 45 -18 21 -4
43 -13 50 -20 7 -6 36 -18 65 -24 28 -7 52 -16 52 -21 0 -4 27 -13 60 -20 33
-7 60 -16 60 -20 0 -5 23 -14 50 -21 28 -7 50 -16 50 -20 0 -4 25 -13 55 -20
30 -7 55 -16 55 -20 0 -4 24 -13 53 -19 28 -7 54 -16 57 -21 11 -16 124 -32
153 -20 24 9 27 16 27 55 0 73 -10 106 -32 106 -16 0 -19 -5 -14 -25 4 -17 2
-25 -6 -25 -25 0 -88 21 -88 29 0 4 -25 13 -55 20 -30 7 -55 16 -55 20 0 5
-27 14 -60 21 -33 7 -60 16 -60 20 0 5 -22 13 -50 20 -27 7 -50 16 -50 20 0 5
-25 14 -55 21 -30 7 -55 16 -55 20 0 4 -25 13 -56 20 -31 7 -61 18 -68 24 -6
7 -35 18 -64 24 -28 7 -52 17 -52 21 0 5 -18 11 -40 15 -22 4 -46 12 -53 19
-7 7 -36 19 -65 25 -28 7 -52 16 -52 20 0 4 -26 14 -57 21 -31 7 -63 18 -70
25 -7 7 -31 16 -53 20 -22 4 -40 11 -40 15 0 5 -25 14 -55 21 -30 7 -55 16
-55 20 0 4 -24 13 -52 20 -29 6 -58 18 -65 25 -7 7 -31 15 -53 19 -22 4 -40
11 -40 15 0 5 -25 14 -56 21 -31 7 -61 18 -68 24 -6 7 -35 18 -64 24 -28 7
-52 16 -52 20 0 4 -26 14 -57 21 -31 7 -63 18 -70 25 -7 7 -31 16 -53 20 -22
4 -40 11 -40 15 0 5 -25 14 -55 21 -30 7 -55 16 -55 20 0 4 -22 13 -50 20 -27
7 -50 16 -50 20 0 4 -22 12 -50 19 -27 7 -50 15 -50 19 0 4 -26 14 -57 21 -31
7 -62 18 -69 24 -6 7 -37 18 -68 25 -31 7 -56 16 -56 21 0 4 -18 11 -40 15
-22 4 -46 12 -53 19 -7 7 -36 19 -65 25 -28 7 -52 16 -52 21 0 4 -27 13 -60
20 -33 7 -60 16 -60 21 0 5 -18 13 -40 19 -39 10 -46 21 -40 60 1 8 8 19 16
23 8 4 14 15 14 23 0 8 6 17 13 20 8 3 20 20 27 39 8 19 17 35 21 35 5 0 16
17 25 38 10 20 24 41 31 45 7 4 13 14 13 22 0 8 9 19 20 25 11 6 20 17 20 26
0 8 6 17 13 20 8 3 20 20 27 39 8 19 18 35 22 35 5 0 13 11 18 25 5 14 13 25
17 25 5 0 15 15 22 33 8 17 23 38 33 45 10 7 18 19 18 26 0 8 6 16 14 19 7 3
17 18 20 33 4 16 16 34 27 42 10 7 19 19 19 25 0 7 11 22 24 34 18 18 31 22
55 17 17 -4 31 -10 31 -13 0 -4 23 -14 50 -21 28 -7 50 -17 50 -21 0 -4 23
-12 50 -19 28 -7 50 -15 50 -19 0 -4 23 -14 50 -21 28 -7 50 -17 50 -21 0 -4
20 -13 45 -20 25 -7 45 -16 45 -20 0 -4 23 -12 50 -19 28 -7 50 -15 50 -19 0
-4 29 -15 65 -26 36 -10 65 -22 65 -26 0 -4 17 -13 37 -20 21 -6 44 -18 51
-26 7 -7 19 -13 27 -13 7 0 16 -11 19 -25 4 -14 10 -25 15 -25 5 0 12 -14 16
-31 4 -17 13 -33 21 -36 8 -3 14 -13 14 -23 0 -9 11 -28 24 -41 13 -13 26 -34
30 -46 4 -13 11 -23 16 -23 14 0 31 -37 24 -54 -10 -25 -31 -19 -44 14 -7 17
-16 30 -20 30 -5 0 -12 13 -18 28 -8 23 -16 29 -41 29 -17 0 -31 -6 -31 -12 0
-7 -22 -15 -52 -19 -67 -9 -208 3 -208 18 0 6 -5 4 -11 -4 -8 -11 -12 -12 -16
-2 -2 6 -13 12 -23 12 -10 0 -22 5 -25 10 -3 5 -15 10 -26 10 -10 0 -19 5 -19
10 0 6 -7 10 -15 10 -8 0 -15 5 -15 10 0 6 -9 10 -20 10 -13 0 -20 7 -20 20 0
11 -4 20 -10 20 -15 0 -12 67 3 73 10 4 10 6 0 6 -7 1 -13 7 -13 14 0 16 68
10 87 -8 6 -7 54 -16 107 -20 53 -4 96 -11 96 -16 0 -14 38 -11 43 4 4 8 8 9
14 1 13 -17 43 -25 37 -9 -3 7 -25 19 -50 26 -24 7 -44 16 -44 20 0 4 -20 13
-45 20 -25 7 -45 17 -45 20 0 4 -25 13 -55 20 -30 7 -55 15 -55 19 0 4 -29 15
-65 25 -36 11 -65 22 -65 25 0 4 -18 13 -40 20 -22 7 -40 16 -40 20 0 3 -20
11 -45 18 -25 7 -45 16 -45 21 0 5 -22 15 -50 22 -27 7 -50 16 -50 21 0 18
-38 7 -43 -13 -5 -17 -9 -19 -26 -9 -18 9 -22 7 -31 -15 -5 -14 -14 -25 -20
-25 -6 0 -13 -8 -17 -17 -6 -18 -13 -27 -51 -69 -10 -12 -25 -35 -33 -52 -8
-18 -17 -32 -22 -32 -4 0 -12 -11 -17 -25 -5 -14 -14 -25 -19 -25 -5 0 -14
-13 -21 -30 -7 -16 -16 -30 -20 -30 -4 0 -13 -13 -20 -30 -7 -16 -16 -30 -21
-30 -4 0 -10 -8 -14 -19 -3 -10 -16 -31 -30 -46 -30 -36 -37 -62 -19 -79 8 -8
14 -21 14 -29 0 -7 12 -20 27 -28 24 -13 60 -43 118 -97 11 -11 35 -23 53 -27
17 -3 32 -10 32 -14 0 -4 23 -13 50 -20 28 -7 50 -16 50 -21 0 -4 24 -14 53
-20 28 -7 54 -16 57 -20 3 -4 25 -11 50 -16 66 -13 1589 -2 1598 12 4 5 22 16
40 23 17 8 32 17 32 22 0 5 20 14 45 21 25 7 45 16 45 20 0 4 15 8 34 8 29 0
36 -5 47 -32 7 -18 18 -36 25 -40 6 -4 15 -24 18 -43 4 -19 11 -35 15 -35 4 0
16 -20 27 -45 12 -30 24 -45 36 -45 10 0 18 3 18 7 0 12 -25 78 -31 83 -3 3
-14 31 -24 63 -10 31 -21 57 -24 57 -4 0 -12 20 -19 45 -7 25 -16 45 -21 45
-5 0 -15 23 -22 50 -7 28 -16 50 -20 50 -4 0 -13 17 -20 37 -6 21 -18 44 -26
51 -7 7 -13 20 -13 28 0 13 -3 13 -17 -2 -16 -16 -18 -15 -26 10 -5 14 -12 26
-17 26 -4 0 -14 23 -21 50 -7 28 -16 50 -20 50 -5 0 -14 18 -20 40 -7 22 -16
40 -21 40 -4 0 -8 9 -8 19 0 11 -4 23 -10 26 -5 3 -10 15 -10 26 0 11 -6 22
-14 25 -8 3 -17 23 -21 45 -4 21 -12 42 -19 46 -7 5 -18 29 -26 56 -7 26 -16
47 -21 47 -5 0 -14 20 -20 45 -6 25 -15 45 -19 45 -4 0 -13 20 -19 45 -6 25
-15 45 -20 45 -5 0 -15 20 -22 45 -7 25 -17 45 -21 45 -4 0 -12 18 -18 40 -6
22 -15 40 -20 40 -5 0 -12 16 -16 36 -4 19 -12 38 -19 40 -6 3 -18 27 -25 54
-12 44 -30 68 -30 40 0 -6 -65 -10 -174 -10 -194 0 -186 3 -186 -75 0 -25 -5
-46 -12 -49 -10 -5 -10 -7 0 -12 14 -7 17 -64 2 -64 -15 0 -12 -57 3 -63 9 -4
8 -8 -3 -16 -13 -10 -13 -11 0 -11 13 0 13 -1 0 -11 -11 -8 -12 -12 -2 -16 6
-2 12 -20 12 -38 0 -18 -6 -36 -12 -38 -10 -4 -9 -8 2 -16 8 -6 10 -11 4 -11
-8 0 -15 -31 -19 -80 -6 -64 -10 -80 -24 -81 -10 0 -11 -2 -3 -6 22 -9 12 -23
-17 -23 -16 0 -31 6 -34 14 -3 8 -16 16 -29 18 -15 2 -24 11 -26 26 -2 12 -7
22 -12 22 -5 0 -10 6 -13 13 -2 6 -2 -1 1 -17 2 -17 10 -36 17 -42 7 -7 16
-29 19 -49 4 -19 11 -35 15 -35 5 0 15 -20 22 -45 7 -25 17 -45 21 -45 4 0 8
-9 8 -19 0 -11 5 -23 10 -26 6 -3 10 -15 10 -26 0 -10 4 -19 9 -19 5 0 15 -25
22 -55 7 -30 16 -55 21 -55 15 0 8 -38 -8 -44 -20 -8 -38 11 -53 57 -7 20 -16
37 -21 37 -4 0 -13 23 -20 50 -7 28 -16 50 -21 50 -4 0 -14 19 -21 43 -7 23
-18 48 -25 55 -7 7 -15 28 -19 47 -3 19 -10 35 -14 35 -4 0 -14 20 -21 45 -7
25 -16 45 -20 45 -4 0 -12 22 -19 50 -7 28 -16 50 -21 50 -5 0 -14 20 -20 45
-6 25 -15 45 -20 45 -4 0 -16 27 -25 60 -9 33 -20 60 -23 60 -4 0 -13 20 -20
45 -7 25 -17 45 -21 45 -4 0 -11 16 -14 35 -4 19 -13 40 -20 47 -7 8 -19 37
-26 66 -8 29 -17 52 -22 52 -4 0 -13 20 -19 45 -6 25 -15 45 -20 45 -4 0 -11
16 -15 35 -3 19 -15 45 -26 57 -16 18 -17 24 -6 33 8 5 19 29 26 53 7 23 17
42 21 42 5 0 15 23 22 50 7 28 16 50 20 50 4 0 12 14 18 30 5 17 14 30 19 30
5 0 16 14 23 32 7 18 20 40 29 49 42 48 44 51 29 60 -10 6 -10 9 -1 9 6 0 12
6 12 14 0 7 7 19 15 26 8 7 15 10 15 8 0 -15 -33 -98 -39 -98 -4 0 -13 -18
-20 -40 -6 -22 -16 -40 -21 -40 -6 0 -10 -7 -10 -15 0 -16 28 -20 45 -7 15 11
32 44 39 79 4 17 13 34 20 36 8 3 16 18 20 32 4 15 14 34 22 42 9 10 14 29 12
52 -3 33 -5 36 -38 38 -19 1 -41 0 -47 -3z m-204 -981 c8 -24 17 -43 21 -43 4
0 11 -16 14 -35 4 -19 12 -40 19 -47 7 -7 19 -35 27 -63 8 -27 20 -56 27 -63
7 -7 15 -28 19 -47 3 -19 10 -35 15 -35 4 0 11 -16 15 -35 3 -19 12 -39 19
-43 16 -10 34 -87 24 -104 -5 -7 -9 -8 -9 -2 0 6 -25 16 -55 23 -30 7 -55 16
-55 21 0 4 -16 11 -35 14 -19 4 -40 13 -47 20 -8 7 -37 19 -66 25 -28 7 -52
17 -52 22 0 4 -19 13 -42 20 -24 6 -45 14 -48 18 -3 4 -21 12 -40 17 -28 8
-36 15 -38 39 -2 17 2 33 10 40 8 5 17 18 21 28 4 11 16 21 27 24 11 3 20 9
20 15 0 5 9 0 20 -10 14 -13 34 -18 74 -17 30 0 58 4 62 7 3 4 9 27 11 51 4
32 1 48 -12 60 -9 9 -11 17 -5 17 6 0 2 10 -10 22 -30 33 -23 106 14 130 15
10 39 -20 55 -69z"/>
<path d="M3026 2980 c3 -14 8 -35 11 -47 3 -13 9 -23 13 -23 5 0 11 -14 15
-31 4 -17 9 -29 11 -26 7 6 -20 107 -29 107 -4 0 -12 10 -18 23 -9 21 -9 21
-3 -3z"/>
<path d="M4530 1420 c0 -5 5 -10 10 -10 6 0 10 5 10 10 0 6 -4 10 -10 10 -5 0
-10 -4 -10 -10z"/>
<path d="M4690 1175 c0 -8 4 -15 10 -15 5 0 12 -11 16 -25 4 -14 9 -24 11 -21
7 7 -20 76 -29 76 -4 0 -8 -7 -8 -15z"/>
<path d="M4730 1090 c0 -5 5 -10 10 -10 6 0 10 5 10 10 0 6 -4 10 -10 10 -5 0
-10 -4 -10 -10z"/>
<path d="M4751 1060 c0 -8 4 -22 9 -30 12 -18 12 -2 0 25 -6 13 -9 15 -9 5z"/>
<path d="M4791 974 c-2 -19 21 -74 30 -74 5 0 9 5 9 10 0 6 -4 10 -9 10 -4 0
-13 15 -19 33 -5 17 -10 27 -11 21z"/>
<path d="M4840 846 c0 -8 4 -17 9 -20 5 -4 7 3 4 14 -6 23 -13 26 -13 6z"/>
<path d="M4891 724 c0 -11 3 -14 6 -6 3 7 2 16 -1 19 -3 4 -6 -2 -5 -13z"/>
</g>
</svg>
