<?xml version="1.0" standalone="no"?>
<!DOCTYPE svg PUBLIC "-//W3C//DTD SVG 20010904//EN"
 "http://www.w3.org/TR/2001/REC-SVG-20010904/DTD/svg10.dtd">
<svg version="1.0" xmlns="http://www.w3.org/2000/svg"
 width="192.000000pt" height="192.000000pt" viewBox="0 0 192.000000 192.000000"
 preserveAspectRatio="xMidYMid meet">

<g transform="translate(0.000000,192.000000) scale(0.100000,-0.100000)"
fill="#000000" stroke="none">
<path d="M726 1630 c-115 -66 -210 -120 -212 -120 -1 0 -35 -19 -76 -43 -40
-24 -95 -56 -123 -71 -27 -16 -74 -42 -102 -59 l-53 -32 0 -426 c0 -389 1
-427 17 -433 9 -4 19 -3 23 1 4 4 64 105 134 223 71 118 138 231 150 250 29
45 128 208 329 540 55 91 115 188 133 217 19 28 34 56 34 62 0 28 -60 2 -254
-109z"/>
<path d="M908 1583 c-21 -25 -108 -175 -108 -188 0 -12 55 69 99 148 33 58 36
71 9 40z"/>
<path d="M1260 1587 c0 -3 21 -51 46 -108 25 -57 50 -117 56 -134 6 -16 14
-34 19 -40 4 -5 23 -48 42 -95 20 -47 52 -122 72 -165 21 -44 45 -100 55 -125
34 -83 198 -451 204 -457 3 -4 6 185 6 418 l0 424 -52 32 c-29 17 -71 41 -93
53 -69 38 -268 151 -312 176 -24 14 -43 23 -43 21z"/>
<path d="M1261 1523 c-1 -15 78 -200 102 -238 11 -16 16 -21 12 -10 -33 95
-113 269 -114 248z"/>
<path d="M1125 1375 c-14 -25 -37 -66 -52 -92 -41 -75 -176 -278 -240 -362 -2
-2 -5 -2 -7 0 -3 2 8 25 23 49 15 25 40 66 55 93 l28 47 -51 0 c-49 0 -52 -1
-88 -51 -47 -63 -135 -161 -140 -155 -2 2 3 31 11 64 37 139 8 187 -54 91 -18
-28 -45 -64 -60 -79 -37 -38 -122 -176 -126 -203 -1 -12 -5 -30 -9 -39 -10
-26 1 -22 66 24 33 22 61 39 64 36 3 -2 -15 -31 -38 -64 -24 -32 -56 -78 -70
-102 l-27 -42 36 0 c26 0 47 9 77 34 46 37 177 112 177 101 0 -36 -185 -189
-345 -286 -59 -36 -97 -62 -204 -143 -13 -10 28 70 52 102 5 7 8 15 5 17 -2 3
-24 -27 -49 -66 -24 -39 -57 -86 -73 -105 -23 -28 -26 -37 -16 -49 10 -12 19
-11 63 11 29 15 84 50 124 80 40 30 78 54 85 54 7 0 147 -76 311 -170 164 -93
303 -170 308 -170 5 0 64 31 130 70 67 38 123 70 124 70 2 0 47 26 102 58 54
32 120 71 147 86 l48 27 149 -56 c82 -31 157 -55 166 -53 19 3 32 58 14 58 -5
0 -11 -4 -13 -9 -1 -5 -194 63 -428 151 -234 87 -482 180 -552 205 -71 26
-128 50 -128 54 0 4 37 62 83 128 45 66 87 127 92 136 9 14 17 16 46 7 32 -9
35 -8 35 12 -1 18 6 21 42 24 36 3 42 6 42 26 0 12 -5 27 -11 33 -12 12 -6 43
9 43 12 0 95 -197 88 -208 -3 -5 11 -17 31 -28 20 -10 41 -28 47 -39 6 -11 22
-35 34 -53 27 -37 22 -56 -5 -26 -14 16 -32 20 -86 20 -52 0 -74 5 -95 21 -30
22 -42 69 -13 54 9 -5 39 -12 66 -15 l50 -6 -40 19 c-22 11 -80 38 -129 60
l-89 42 -23 -22 c-34 -32 -124 -164 -124 -182 0 -27 68 -76 136 -97 60 -18 92
-20 355 -20 271 0 291 1 321 20 46 28 52 26 82 -22 58 -94 6 29 -92 217 -20
39 -61 124 -91 188 l-54 118 -71 -3 -71 -3 -2 -55 c-2 -30 -5 -79 -9 -108 -5
-46 -8 -52 -25 -47 -24 8 -24 9 6 -59 45 -101 26 -106 -22 -6 -61 129 -163
370 -163 386 0 18 50 123 62 130 6 4 7 -2 3 -15 -10 -34 1 -24 24 19 41 79 10
101 -34 25z"/>
<path d="M1007 909 c7 -7 15 -10 18 -7 3 3 -2 9 -12 12 -14 6 -15 5 -6 -5z"/>
<path d="M1077 879 c7 -7 15 -10 18 -7 3 3 -2 9 -12 12 -14 6 -15 5 -6 -5z"/>
</g>
</svg>
