<?xml version="1.0" standalone="no"?>
<!DOCTYPE svg PUBLIC "-//W3C//DTD SVG 20010904//EN"
 "http://www.w3.org/TR/2001/REC-SVG-20010904/DTD/svg10.dtd">
<svg version="1.0" xmlns="http://www.w3.org/2000/svg"
 width="32.000000pt" height="32.000000pt" viewBox="0 0 32.000000 32.000000"
 preserveAspectRatio="xMidYMid meet">

<g transform="translate(0.000000,32.000000) scale(0.100000,-0.100000)"
fill="#000000" stroke="none">
<path d="M95 256 l-60 -33 -3 -74 -2 -74 20 30 c17 26 25 27 21 3 0 -5 3 -8 7
-8 4 0 12 3 18 8 20 15 -34 -34 -62 -56 -23 -18 -23 -20 -4 -9 23 14 29 13 78
-15 l52 -30 51 30 50 29 -53 21 -53 22 68 -3 67 -2 0 62 0 63 -39 20 -40 20
11 -30 c5 -17 14 -33 19 -36 5 -3 9 -10 9 -16 0 -7 -5 -6 -14 1 -17 14 -25 4
-28 -33 -3 -31 -6 -31 -38 -6 l-25 20 23 0 c12 0 22 -5 22 -12 0 -6 2 -9 5 -6
3 3 -1 20 -8 38 -12 26 -15 29 -21 15 -3 -10 -9 -15 -13 -11 -3 3 -15 -1 -25
-11 -12 -10 -18 -12 -18 -4 0 7 -5 9 -12 4 -7 -4 -5 6 6 22 30 46 58 95 54 95
-1 0 -30 -15 -63 -34z"/>
</g>
</svg>
